<svg xmlns="http://www.w3.org/2000/svg" viewBox="0 0 1100 740">
  <defs>
    <linearGradient id="bgG" x1="0%" y1="0%" x2="100%" y2="100%">
      <stop offset="0%" stop-color="#0a0e1a"/>
      <stop offset="100%" stop-color="#0f1729"/>
    </linearGradient>
    <linearGradient id="blueG" x1="0%" y1="0%" x2="0%" y2="100%">
      <stop offset="0%" stop-color="#1e3a5f"/>
      <stop offset="100%" stop-color="#172554"/>
    </linearGradient>
    <linearGradient id="amberG" x1="0%" y1="0%" x2="0%" y2="100%">
      <stop offset="0%" stop-color="#78350f"/>
      <stop offset="100%" stop-color="#451a03"/>
    </linearGradient>
    <linearGradient id="greenG" x1="0%" y1="0%" x2="0%" y2="100%">
      <stop offset="0%" stop-color="#14532d"/>
      <stop offset="100%" stop-color="#052e16"/>
    </linearGradient>
    <linearGradient id="purpleG" x1="0%" y1="0%" x2="0%" y2="100%">
      <stop offset="0%" stop-color="#3b0764"/>
      <stop offset="100%" stop-color="#2e1065"/>
    </linearGradient>
    <filter id="g1"><feGaussianBlur stdDeviation="2" result="b"/><feComposite in="SourceGraphic" in2="b" operator="over"/></filter>
    <filter id="layerShadow"><feDropShadow dx="0" dy="2" stdDeviation="4" flood-color="#000" flood-opacity="0.3"/></filter>

    <!-- Reusable AWS icon path -->
    <g id="awsIcon">
      <path d="M8.4 14.3c2.9 1.4 6 1.4 8.9.3l.7.8c-3.4 1.4-7 1.4-10.3-.3-.4-.2-.4-.5 0-.7l.7-.1z"/>
      <path d="M9.8 12.8c-.2.3-.2.7 0 .9l1.5-.8-.8-1.1c-.4.2-.6.6-.7 1zm5.1-3.8c0-.9-.7-1.3-1.5-1s-1.5.7-1.5 1.6v.5l2.5-1.1h.1c.3-.1.4 0 .4.3v-.3zm2.1.5l-6 2.6c-.3.1-.5.5-.5.9-.1 1 .6 2.1 1.5 2.6.3.1.6.1.8 0l5.8-2.5c.2-.1.4-.4.4-.6.1-1.1-.6-2.3-1.5-2.8-.2-.2-.4-.3-.5-.2z"/>
    </g>
  </defs>

  <rect width="1100" height="740" fill="url(#bgG)"/>

  <!-- Title -->
  <text x="550" y="32" font-family="system-ui,sans-serif" font-size="17" fill="#e2e8f0" text-anchor="middle" font-weight="700" letter-spacing="3">SYSTEM ARCHITECTURE</text>
  <text x="550" y="50" font-family="system-ui,sans-serif" font-size="10" fill="#64748b" text-anchor="middle" letter-spacing="1">Full-stack voice AI travel assistant</text>

  <!-- ═══ BROWSER LAYER ═══ -->
  <rect x="40" y="65" width="1020" height="135" rx="12" fill="url(#blueG)" stroke="#3b82f6" stroke-opacity="0.35" stroke-width="1.5" filter="url(#layerShadow)"/>
  <!-- React icon -->
  <g transform="translate(60,80) scale(0.7)" opacity="0.8">
    <circle cx="10" cy="10" r="2.5" fill="#61DAFB"/>
    <ellipse cx="10" cy="10" rx="9" ry="3.5" fill="none" stroke="#61DAFB" stroke-width="1" transform="rotate(0,10,10)"/>
    <ellipse cx="10" cy="10" rx="9" ry="3.5" fill="none" stroke="#61DAFB" stroke-width="1" transform="rotate(60,10,10)"/>
    <ellipse cx="10" cy="10" rx="9" ry="3.5" fill="none" stroke="#61DAFB" stroke-width="1" transform="rotate(120,10,10)"/>
  </g>
  <text x="80" y="91" font-family="system-ui,sans-serif" font-size="12" fill="#60a5fa" font-weight="700" letter-spacing="1">BROWSER — Next.js 16 + React 19 + Tailwind CSS 4</text>

  <!-- Frontend component cards -->
  <g transform="translate(60, 102)">
    <rect width="140" height="82" rx="8" fill="#1e293b" stroke="#3b82f6" stroke-opacity="0.25"/>
    <rect width="140" height="24" rx="8" fill="#172554"/>
    <rect y="16" width="140" height="8" fill="#172554"/>
    <text x="70" y="17" font-family="system-ui,sans-serif" font-size="11" fill="#93c5fd" text-anchor="middle" font-weight="600">VoicePanel</text>
    <text x="70" y="42" font-family="system-ui,sans-serif" font-size="9" fill="#64748b" text-anchor="middle">Mic capture</text>
    <text x="70" y="54" font-family="system-ui,sans-serif" font-size="9" fill="#64748b" text-anchor="middle">PCM 16kHz encode</text>
    <text x="70" y="66" font-family="system-ui,sans-serif" font-size="9" fill="#64748b" text-anchor="middle">LOD controls</text>
  </g>
  <g transform="translate(215, 102)">
    <rect width="140" height="82" rx="8" fill="#1e293b" stroke="#3b82f6" stroke-opacity="0.25"/>
    <rect width="140" height="24" rx="8" fill="#172554"/>
    <rect y="16" width="140" height="8" fill="#172554"/>
    <text x="70" y="17" font-family="system-ui,sans-serif" font-size="11" fill="#93c5fd" text-anchor="middle" font-weight="600">ChatInterface</text>
    <text x="70" y="42" font-family="system-ui,sans-serif" font-size="9" fill="#64748b" text-anchor="middle">Transcript display</text>
    <text x="70" y="54" font-family="system-ui,sans-serif" font-size="9" fill="#64748b" text-anchor="middle">Tool call status</text>
    <text x="70" y="66" font-family="system-ui,sans-serif" font-size="9" fill="#64748b" text-anchor="middle">Text input fallback</text>
  </g>
  <g transform="translate(370, 102)">
    <rect width="160" height="82" rx="8" fill="#1e293b" stroke="#3b82f6" stroke-opacity="0.25"/>
    <rect width="160" height="24" rx="8" fill="#172554"/>
    <rect y="16" width="160" height="8" fill="#172554"/>
    <text x="80" y="17" font-family="system-ui,sans-serif" font-size="11" fill="#93c5fd" text-anchor="middle" font-weight="600">ItineraryWorkspace</text>
    <text x="80" y="42" font-family="system-ui,sans-serif" font-size="9" fill="#64748b" text-anchor="middle">Day-by-day timeline</text>
    <text x="80" y="54" font-family="system-ui,sans-serif" font-size="9" fill="#64748b" text-anchor="middle">Activity cards</text>
    <text x="80" y="66" font-family="system-ui,sans-serif" font-size="9" fill="#64748b" text-anchor="middle">Budget estimates</text>
  </g>
  <g transform="translate(545, 102)">
    <rect width="120" height="82" rx="8" fill="#1e293b" stroke="#3b82f6" stroke-opacity="0.25"/>
    <rect width="120" height="24" rx="8" fill="#172554"/>
    <rect y="16" width="120" height="8" fill="#172554"/>
    <text x="60" y="17" font-family="system-ui,sans-serif" font-size="11" fill="#93c5fd" text-anchor="middle" font-weight="600">TripMap</text>
    <text x="60" y="42" font-family="system-ui,sans-serif" font-size="9" fill="#64748b" text-anchor="middle">Location markers</text>
    <text x="60" y="54" font-family="system-ui,sans-serif" font-size="9" fill="#64748b" text-anchor="middle">Route polylines</text>
  </g>
  <g transform="translate(680, 102)">
    <rect width="140" height="82" rx="8" fill="#1e293b" stroke="#3b82f6" stroke-opacity="0.25"/>
    <rect width="140" height="24" rx="8" fill="#172554"/>
    <rect y="16" width="140" height="8" fill="#172554"/>
    <text x="70" y="17" font-family="system-ui,sans-serif" font-size="11" fill="#93c5fd" text-anchor="middle" font-weight="600">NovaActViewer</text>
    <text x="70" y="42" font-family="system-ui,sans-serif" font-size="9" fill="#64748b" text-anchor="middle">Booking progress</text>
    <text x="70" y="54" font-family="system-ui,sans-serif" font-size="9" fill="#64748b" text-anchor="middle">Screenshot feed</text>
    <text x="70" y="66" font-family="system-ui,sans-serif" font-size="9" fill="#64748b" text-anchor="middle">Cancel control</text>
  </g>
  <g transform="translate(835, 102)">
    <rect width="205" height="82" rx="8" fill="#1e293b" stroke="#3b82f6" stroke-opacity="0.25"/>
    <rect width="205" height="24" rx="8" fill="#172554"/>
    <rect y="16" width="205" height="8" fill="#172554"/>
    <text x="102" y="17" font-family="system-ui,sans-serif" font-size="11" fill="#93c5fd" text-anchor="middle" font-weight="600">useVoiceAgent Hook</text>
    <text x="102" y="42" font-family="system-ui,sans-serif" font-size="9" fill="#64748b" text-anchor="middle">WebSocket state machine</text>
    <text x="102" y="54" font-family="system-ui,sans-serif" font-size="9" fill="#64748b" text-anchor="middle">AudioPlayer (PCM playback)</text>
    <text x="102" y="66" font-family="system-ui,sans-serif" font-size="9" fill="#64748b" text-anchor="middle">Resample + base64 encode</text>
  </g>

  <!-- Connection arrows -->
  <g opacity="0.7">
    <line x1="300" y1="200" x2="300" y2="228" stroke="#60a5fa" stroke-width="2" stroke-dasharray="4,3"/>
    <polygon points="296,226 300,234 304,226" fill="#60a5fa"/>
    <text x="312" y="220" font-family="system-ui,sans-serif" font-size="9" fill="#60a5fa" font-weight="500">WebSocket</text>

    <line x1="700" y1="200" x2="700" y2="228" stroke="#60a5fa" stroke-width="2" stroke-dasharray="4,3"/>
    <polygon points="696,226 700,234 704,226" fill="#60a5fa"/>
    <text x="712" y="220" font-family="system-ui,sans-serif" font-size="9" fill="#60a5fa" font-weight="500">REST</text>
  </g>

  <!-- ═══ BACKEND LAYER ═══ -->
  <rect x="40" y="240" width="1020" height="280" rx="12" fill="#111827" stroke="#f59e0b" stroke-opacity="0.25" stroke-width="1.5" filter="url(#layerShadow)"/>
  <!-- Strands icon -->
  <g transform="translate(60,252) scale(0.7)" opacity="0.8">
    <circle cx="10" cy="7" r="3.5" fill="none" stroke="#fbbf24" stroke-width="1.5"/>
    <path d="M4,17 Q4,12 10,12 Q16,12 16,17" fill="none" stroke="#fbbf24" stroke-width="1.5" stroke-linecap="round"/>
  </g>
  <text x="80" y="263" font-family="system-ui,sans-serif" font-size="12" fill="#fbbf24" font-weight="700" letter-spacing="1">BACKEND — FastAPI + Strands Agents SDK</text>

  <!-- Voice bridge -->
  <g transform="translate(60, 278)">
    <rect width="240" height="88" rx="10" fill="url(#amberG)" stroke="#f59e0b" stroke-opacity="0.35" stroke-width="1"/>
    <rect width="240" height="26" rx="10" fill="#92400e" fill-opacity="0.4"/>
    <rect y="16" width="240" height="10" fill="#92400e" fill-opacity="0.4"/>
    <text x="120" y="19" font-family="system-ui,sans-serif" font-size="12" fill="#fcd34d" text-anchor="middle" font-weight="700">Voice WebSocket Bridge</text>
    <text x="120" y="44" font-family="system-ui,sans-serif" font-size="9" fill="#a3a3a3" text-anchor="middle">/ws/voice/{session_id}</text>
    <text x="120" y="58" font-family="system-ui,sans-serif" font-size="9" fill="#a3a3a3" text-anchor="middle">Bidirectional audio + events</text>
    <text x="120" y="72" font-family="system-ui,sans-serif" font-size="9" fill="#a3a3a3" text-anchor="middle">Auto fallback: BidiAgent → MockAgent</text>
  </g>

  <!-- BidiAgent -->
  <g transform="translate(320, 278)">
    <rect width="200" height="88" rx="10" fill="url(#amberG)" stroke="#f59e0b" stroke-opacity="0.35" stroke-width="1"/>
    <rect width="200" height="26" rx="10" fill="#92400e" fill-opacity="0.4"/>
    <rect y="16" width="200" height="10" fill="#92400e" fill-opacity="0.4"/>
    <text x="100" y="19" font-family="system-ui,sans-serif" font-size="12" fill="#fcd34d" text-anchor="middle" font-weight="700">BidiAgent</text>
    <text x="100" y="44" font-family="system-ui,sans-serif" font-size="9" fill="#a3a3a3" text-anchor="middle">Strands Agents SDK</text>
    <text x="100" y="58" font-family="system-ui,sans-serif" font-size="9" fill="#a3a3a3" text-anchor="middle">Speech-to-Speech pipeline</text>
    <text x="100" y="72" font-family="system-ui,sans-serif" font-size="9" fill="#a3a3a3" text-anchor="middle">Tool calling orchestration</text>
  </g>

  <!-- LOD System -->
  <g transform="translate(540, 278)">
    <rect width="180" height="88" rx="10" fill="url(#purpleG)" stroke="#8b5cf6" stroke-opacity="0.35" stroke-width="1"/>
    <rect width="180" height="26" rx="10" fill="#581c87" fill-opacity="0.4"/>
    <rect y="16" width="180" height="10" fill="#581c87" fill-opacity="0.4"/>
    <text x="90" y="19" font-family="system-ui,sans-serif" font-size="12" fill="#c4b5fd" text-anchor="middle" font-weight="700">LOD System</text>
    <text x="90" y="44" font-family="system-ui,sans-serif" font-size="9" fill="#a3a3a3" text-anchor="middle">L1: Brief (15-40 words)</text>
    <text x="90" y="58" font-family="system-ui,sans-serif" font-size="9" fill="#a3a3a3" text-anchor="middle">L2: Standard (80-150)</text>
    <text x="90" y="72" font-family="system-ui,sans-serif" font-size="9" fill="#a3a3a3" text-anchor="middle">L3: Narrative (400-800)</text>
  </g>

  <!-- Text Chat -->
  <g transform="translate(740, 278)">
    <rect width="150" height="88" rx="10" fill="#1e293b" stroke="#475569" stroke-opacity="0.4" stroke-width="1"/>
    <rect width="150" height="26" rx="10" fill="#334155" fill-opacity="0.4"/>
    <rect y="16" width="150" height="10" fill="#334155" fill-opacity="0.4"/>
    <text x="75" y="19" font-family="system-ui,sans-serif" font-size="12" fill="#94a3b8" text-anchor="middle" font-weight="700">Text Chat</text>
    <text x="75" y="44" font-family="system-ui,sans-serif" font-size="9" fill="#64748b" text-anchor="middle">POST /api/chat</text>
    <text x="75" y="58" font-family="system-ui,sans-serif" font-size="9" fill="#64748b" text-anchor="middle">REST fallback</text>
    <text x="75" y="72" font-family="system-ui,sans-serif" font-size="9" fill="#64748b" text-anchor="middle">Nova Lite direct</text>
  </g>

  <!-- Config -->
  <g transform="translate(910, 278)">
    <rect width="130" height="88" rx="10" fill="#1e293b" stroke="#475569" stroke-opacity="0.4" stroke-width="1"/>
    <rect width="130" height="26" rx="10" fill="#334155" fill-opacity="0.4"/>
    <rect y="16" width="130" height="10" fill="#334155" fill-opacity="0.4"/>
    <text x="65" y="19" font-family="system-ui,sans-serif" font-size="12" fill="#94a3b8" text-anchor="middle" font-weight="700">Config</text>
    <text x="65" y="44" font-family="system-ui,sans-serif" font-size="9" fill="#64748b" text-anchor="middle">Pydantic Settings</text>
    <text x="65" y="58" font-family="system-ui,sans-serif" font-size="9" fill="#64748b" text-anchor="middle">.env loading</text>
    <text x="65" y="72" font-family="system-ui,sans-serif" font-size="9" fill="#64748b" text-anchor="middle">Mock mode toggle</text>
  </g>

  <!-- Arrow from WS Bridge to BidiAgent -->
  <line x1="300" y1="322" x2="320" y2="322" stroke="#f59e0b" stroke-width="1.5" stroke-opacity="0.5"/>
  <polygon points="318,319 323,322 318,325" fill="#f59e0b" opacity="0.5"/>

  <!-- Tools Section -->
  <text x="80" y="392" font-family="system-ui,sans-serif" font-size="11" fill="#34d399" font-weight="600" letter-spacing="1">8 TRAVEL TOOLS — Strands @tool decorator</text>

  <g transform="translate(60, 402)">
    <rect width="120" height="42" rx="6" fill="url(#greenG)" stroke="#10b981" stroke-opacity="0.25"/>
    <text x="60" y="18" font-family="monospace" font-size="10" fill="#6ee7b7" text-anchor="middle" font-weight="600">search_flights</text>
    <text x="60" y="33" font-family="system-ui,sans-serif" font-size="8" fill="#64748b" text-anchor="middle">Gemini + Search</text>
  </g>
  <g transform="translate(190, 402)">
    <rect width="120" height="42" rx="6" fill="url(#greenG)" stroke="#10b981" stroke-opacity="0.25"/>
    <text x="60" y="18" font-family="monospace" font-size="10" fill="#6ee7b7" text-anchor="middle" font-weight="600">search_hotels</text>
    <text x="60" y="33" font-family="system-ui,sans-serif" font-size="8" fill="#64748b" text-anchor="middle">Google Places</text>
  </g>
  <g transform="translate(320, 402)">
    <rect width="120" height="42" rx="6" fill="url(#greenG)" stroke="#10b981" stroke-opacity="0.25"/>
    <text x="60" y="18" font-family="monospace" font-size="10" fill="#6ee7b7" text-anchor="middle" font-weight="600">search_places</text>
    <text x="60" y="33" font-family="system-ui,sans-serif" font-size="8" fill="#64748b" text-anchor="middle">Google Places</text>
  </g>
  <g transform="translate(450, 402)">
    <rect width="110" height="42" rx="6" fill="url(#greenG)" stroke="#10b981" stroke-opacity="0.25"/>
    <text x="55" y="18" font-family="monospace" font-size="10" fill="#6ee7b7" text-anchor="middle" font-weight="600">plan_route</text>
    <text x="55" y="33" font-family="system-ui,sans-serif" font-size="8" fill="#64748b" text-anchor="middle">Google Routes</text>
  </g>
  <g transform="translate(570, 402)">
    <rect width="110" height="42" rx="6" fill="url(#greenG)" stroke="#10b981" stroke-opacity="0.25"/>
    <text x="55" y="18" font-family="monospace" font-size="10" fill="#6ee7b7" text-anchor="middle" font-weight="600">get_weather</text>
    <text x="55" y="33" font-family="system-ui,sans-serif" font-size="8" fill="#64748b" text-anchor="middle">OpenWeather</text>
  </g>
  <g transform="translate(690, 402)">
    <rect width="110" height="42" rx="6" fill="url(#greenG)" stroke="#10b981" stroke-opacity="0.25"/>
    <text x="55" y="18" font-family="monospace" font-size="10" fill="#6ee7b7" text-anchor="middle" font-weight="600">get_forecast</text>
    <text x="55" y="33" font-family="system-ui,sans-serif" font-size="8" fill="#64748b" text-anchor="middle">OpenWeather</text>
  </g>
  <g transform="translate(810, 402)">
    <rect width="115" height="42" rx="6" fill="url(#amberG)" stroke="#f59e0b" stroke-opacity="0.25"/>
    <text x="57" y="18" font-family="monospace" font-size="10" fill="#fcd34d" text-anchor="middle" font-weight="600">plan_itinerary</text>
    <text x="57" y="33" font-family="system-ui,sans-serif" font-size="8" fill="#64748b" text-anchor="middle">Nova Lite</text>
  </g>
  <g transform="translate(935, 402)">
    <rect width="110" height="42" rx="6" fill="url(#amberG)" stroke="#f59e0b" stroke-opacity="0.25"/>
    <text x="55" y="18" font-family="monospace" font-size="10" fill="#fcd34d" text-anchor="middle" font-weight="600">book_flight</text>
    <text x="55" y="33" font-family="system-ui,sans-serif" font-size="8" fill="#64748b" text-anchor="middle">Nova Act</text>
  </g>

  <!-- Event protocol -->
  <text x="80" y="470" font-family="system-ui,sans-serif" font-size="11" fill="#60a5fa" font-weight="600" letter-spacing="1">WEBSOCKET PROTOCOL — 8 Event Types</text>
  <g transform="translate(60, 480)" font-family="monospace" font-size="9">
    <rect width="110" height="26" rx="5" fill="#1e293b" stroke="#3b82f6" stroke-opacity="0.15"/>
    <text x="55" y="17" fill="#93c5fd" text-anchor="middle">audio</text>
    <rect x="120" width="110" height="26" rx="5" fill="#1e293b" stroke="#3b82f6" stroke-opacity="0.15"/>
    <text x="175" y="17" fill="#93c5fd" text-anchor="middle">transcript</text>
    <rect x="240" width="110" height="26" rx="5" fill="#1e293b" stroke="#3b82f6" stroke-opacity="0.15"/>
    <text x="295" y="17" fill="#93c5fd" text-anchor="middle">tool_call</text>
    <rect x="360" width="110" height="26" rx="5" fill="#1e293b" stroke="#3b82f6" stroke-opacity="0.15"/>
    <text x="415" y="17" fill="#93c5fd" text-anchor="middle">itinerary</text>
    <rect x="480" width="120" height="26" rx="5" fill="#1e293b" stroke="#3b82f6" stroke-opacity="0.15"/>
    <text x="540" y="17" fill="#93c5fd" text-anchor="middle">interruption</text>
    <rect x="610" width="110" height="26" rx="5" fill="#1e293b" stroke="#3b82f6" stroke-opacity="0.15"/>
    <text x="665" y="17" fill="#93c5fd" text-anchor="middle">lod_change</text>
    <rect x="730" width="150" height="26" rx="5" fill="#1e293b" stroke="#3b82f6" stroke-opacity="0.15"/>
    <text x="805" y="17" fill="#93c5fd" text-anchor="middle">booking_progress</text>
    <rect x="890" width="100" height="26" rx="5" fill="#1e293b" stroke="#3b82f6" stroke-opacity="0.15"/>
    <text x="940" y="17" fill="#93c5fd" text-anchor="middle">error</text>
  </g>

  <!-- Arrows to services -->
  <g opacity="0.6">
    <line x1="300" y1="520" x2="300" y2="548" stroke="#f59e0b" stroke-width="1.5" stroke-dasharray="4,3"/>
    <polygon points="296,546 300,554 304,546" fill="#f59e0b"/>
    <line x1="700" y1="520" x2="700" y2="548" stroke="#10b981" stroke-width="1.5" stroke-dasharray="4,3"/>
    <polygon points="696,546 700,554 704,546" fill="#10b981"/>
  </g>

  <!-- ═══ SERVICES LAYER ═══ -->
  <!-- AWS Services -->
  <rect x="40" y="560" width="500" height="160" rx="12" fill="#111827" stroke="#f59e0b" stroke-opacity="0.2" stroke-width="1.5" filter="url(#layerShadow)"/>
  <!-- AWS icon -->
  <g transform="translate(60,573) scale(0.65)" fill="#fbbf24" opacity="0.8">
    <use href="#awsIcon"/>
  </g>
  <text x="78" y="583" font-family="system-ui,sans-serif" font-size="12" fill="#fbbf24" font-weight="700" letter-spacing="1">AMAZON NOVA SERVICES (AWS Bedrock)</text>

  <g transform="translate(60, 598)">
    <rect width="145" height="55" rx="8" fill="url(#amberG)" stroke="#f59e0b" stroke-opacity="0.3"/>
    <text x="72" y="20" font-family="system-ui,sans-serif" font-size="11" fill="#fcd34d" text-anchor="middle" font-weight="600">Nova 2 Sonic</text>
    <text x="72" y="34" font-family="system-ui,sans-serif" font-size="8" fill="#a3a3a3" text-anchor="middle">Speech-to-Speech</text>
    <text x="72" y="46" font-family="system-ui,sans-serif" font-size="8" fill="#a3a3a3" text-anchor="middle">Realtime voice S2S</text>
  </g>
  <g transform="translate(220, 598)">
    <rect width="145" height="55" rx="8" fill="url(#amberG)" stroke="#f59e0b" stroke-opacity="0.3"/>
    <text x="72" y="20" font-family="system-ui,sans-serif" font-size="11" fill="#fcd34d" text-anchor="middle" font-weight="600">Nova 2 Lite</text>
    <text x="72" y="34" font-family="system-ui,sans-serif" font-size="8" fill="#a3a3a3" text-anchor="middle">Reasoning + Text</text>
    <text x="72" y="46" font-family="system-ui,sans-serif" font-size="8" fill="#a3a3a3" text-anchor="middle">Itinerary planner</text>
  </g>
  <g transform="translate(380, 598)">
    <rect width="145" height="55" rx="8" fill="url(#amberG)" stroke="#f59e0b" stroke-opacity="0.3"/>
    <text x="72" y="20" font-family="system-ui,sans-serif" font-size="11" fill="#fcd34d" text-anchor="middle" font-weight="600">Nova Act</text>
    <text x="72" y="34" font-family="system-ui,sans-serif" font-size="8" fill="#a3a3a3" text-anchor="middle">Browser automation</text>
    <text x="72" y="46" font-family="system-ui,sans-serif" font-size="8" fill="#a3a3a3" text-anchor="middle">Flight booking</text>
  </g>

  <!-- DynamoDB -->
  <g transform="translate(60, 665)">
    <rect width="145" height="42" rx="8" fill="#1e293b" stroke="#f59e0b" stroke-opacity="0.15"/>
    <text x="72" y="18" font-family="system-ui,sans-serif" font-size="10" fill="#fbbf24" text-anchor="middle" font-weight="600">DynamoDB</text>
    <text x="72" y="33" font-family="system-ui,sans-serif" font-size="8" fill="#64748b" text-anchor="middle">Sessions / Itineraries / Prefs</text>
  </g>

  <!-- External APIs -->
  <rect x="560" y="560" width="500" height="160" rx="12" fill="#111827" stroke="#10b981" stroke-opacity="0.2" stroke-width="1.5" filter="url(#layerShadow)"/>
  <text x="580" y="583" font-family="system-ui,sans-serif" font-size="12" fill="#34d399" font-weight="700" letter-spacing="1">EXTERNAL APIs</text>

  <g transform="translate(580, 598)">
    <rect width="145" height="55" rx="8" fill="url(#greenG)" stroke="#10b981" stroke-opacity="0.3"/>
    <!-- Gemini star mini -->
    <g transform="translate(10,10) scale(0.35)" fill="#6ee7b7">
      <path d="M11.04 19.32Q12 21.51 12 24q0-2.49.93-4.68.96-2.19 2.58-3.81t3.81-2.55Q21.51 12 24 12q-2.49 0-4.68-.93a12.3 12.3 0 0 1-3.81-2.58 12.3 12.3 0 0 1-2.58-3.81Q12 2.49 12 0q0 2.49-.96 4.68-.93 2.19-2.55 3.81a12.3 12.3 0 0 1-3.81 2.58Q2.49 12 0 12q2.49 0 4.68.96 2.19.93 3.81 2.55t2.55 3.81"/>
    </g>
    <text x="72" y="20" font-family="system-ui,sans-serif" font-size="11" fill="#6ee7b7" text-anchor="middle" font-weight="600">Google Gemini</text>
    <text x="72" y="34" font-family="system-ui,sans-serif" font-size="8" fill="#a3a3a3" text-anchor="middle">Search grounding</text>
    <text x="72" y="46" font-family="system-ui,sans-serif" font-size="8" fill="#a3a3a3" text-anchor="middle">Flight data</text>
  </g>
  <g transform="translate(740, 598)">
    <rect width="145" height="55" rx="8" fill="url(#greenG)" stroke="#10b981" stroke-opacity="0.3"/>
    <!-- Maps pin mini -->
    <g transform="translate(10,8) scale(0.6)" fill="#6ee7b7">
      <path d="M12,2C8.13,2,5,5.13,5,9c0,5.25,7,13,7,13s7-7.75,7-13C19,5.13,15.87,2,12,2z M12,11.5c-1.38,0-2.5-1.12-2.5-2.5S10.62,6.5,12,6.5s2.5,1.12,2.5,2.5S13.38,11.5,12,11.5z"/>
    </g>
    <text x="72" y="20" font-family="system-ui,sans-serif" font-size="11" fill="#6ee7b7" text-anchor="middle" font-weight="600">Google Maps</text>
    <text x="72" y="34" font-family="system-ui,sans-serif" font-size="8" fill="#a3a3a3" text-anchor="middle">Places + Routes</text>
    <text x="72" y="46" font-family="system-ui,sans-serif" font-size="8" fill="#a3a3a3" text-anchor="middle">Hotels + POI</text>
  </g>
  <g transform="translate(900, 598)">
    <rect width="140" height="55" rx="8" fill="url(#greenG)" stroke="#10b981" stroke-opacity="0.3"/>
    <!-- Weather icon mini -->
    <g transform="translate(8,8) scale(0.55)" fill="#6ee7b7">
      <path d="M6.76,4.84l-1.8-1.79-1.41,1.41,1.79,1.79L6.76,4.84zM4,10.5H1v2h3V10.5zM13,0.55h-2V3.5h2V0.55zM20.45,4.46l-1.41-1.41-1.79,1.79,1.41,1.41L20.45,4.46zM17.24,18.16l1.79,1.8,1.41-1.41-1.8-1.79L17.24,18.16zM20,10.5v2h3v-2H20zM12,5.5c-3.31,0-6,2.69-6,6s2.69,6,6,6,6-2.69,6-6S15.31,5.5,12,5.5zM11,22.45h2V19.5h-2V22.45zM3.55,18.54l1.41,1.41,1.79-1.8-1.41-1.41L3.55,18.54z"/>
    </g>
    <text x="70" y="20" font-family="system-ui,sans-serif" font-size="11" fill="#6ee7b7" text-anchor="middle" font-weight="600">OpenWeather</text>
    <text x="70" y="34" font-family="system-ui,sans-serif" font-size="8" fill="#a3a3a3" text-anchor="middle">Current + Forecast</text>
    <text x="70" y="46" font-family="system-ui,sans-serif" font-size="8" fill="#a3a3a3" text-anchor="middle">5-day weather</text>
  </g>
</svg>
