<svg xmlns="http://www.w3.org/2000/svg" viewBox="0 0 1200 380">
  <defs>
    <linearGradient id="bg" x1="0%" y1="0%" x2="100%" y2="100%">
      <stop offset="0%" stop-color="#06081a"/>
      <stop offset="40%" stop-color="#0c1225"/>
      <stop offset="100%" stop-color="#081020"/>
    </linearGradient>
    <linearGradient id="blue" x1="0%" y1="0%" x2="100%" y2="0%">
      <stop offset="0%" stop-color="#3b82f6"/>
      <stop offset="100%" stop-color="#38bdf8"/>
    </linearGradient>
    <linearGradient id="amber" x1="0%" y1="0%" x2="100%" y2="0%">
      <stop offset="0%" stop-color="#f59e0b"/>
      <stop offset="100%" stop-color="#f97316"/>
    </linearGradient>
    <linearGradient id="goldRing" x1="0%" y1="0%" x2="100%" y2="100%">
      <stop offset="0%" stop-color="#D4A853"/>
      <stop offset="50%" stop-color="#C49B3C"/>
      <stop offset="100%" stop-color="#B8912F"/>
    </linearGradient>
    <filter id="glow"><feGaussianBlur stdDeviation="4" result="b"/><feComposite in="SourceGraphic" in2="b" operator="over"/></filter>
    <filter id="softglow"><feGaussianBlur stdDeviation="15" result="b"/><feComposite in="SourceGraphic" in2="b" operator="over"/></filter>
    <filter id="logoGlow"><feGaussianBlur stdDeviation="8" result="b"/><feMerge><feMergeNode in="b"/><feMergeNode in="SourceGraphic"/></feMerge></filter>
  </defs>

  <!-- Background -->
  <rect width="1200" height="380" fill="url(#bg)"/>

  <!-- Subtle grid -->
  <g opacity="0.025" stroke="#60a5fa" stroke-width="0.5">
    <line x1="0" y1="60" x2="1200" y2="60"/><line x1="0" y1="120" x2="1200" y2="120"/>
    <line x1="0" y1="180" x2="1200" y2="180"/><line x1="0" y1="240" x2="1200" y2="240"/>
    <line x1="0" y1="300" x2="1200" y2="300"/>
    <line x1="200" y1="0" x2="200" y2="380"/><line x1="400" y1="0" x2="400" y2="380"/>
    <line x1="600" y1="0" x2="600" y2="380"/><line x1="800" y1="0" x2="800" y2="380"/>
    <line x1="1000" y1="0" x2="1000" y2="380"/>
  </g>

  <!-- Ambient orbs -->
  <circle cx="140" cy="190" r="180" fill="#3b82f6" opacity="0.03"/>
  <circle cx="1060" cy="190" r="200" fill="#f59e0b" opacity="0.02"/>
  <circle cx="600" cy="190" r="280" fill="#C49B3C" opacity="0.015"/>

  <!-- Sound wave decoration (left) -->
  <g transform="translate(80,130)" opacity="0.1" stroke="#60a5fa" fill="none" stroke-width="1.5" stroke-linecap="round">
    <path d="M0,30 Q15,5 30,30 Q45,55 60,30 Q75,5 90,30"/>
    <path d="M5,50 Q20,25 35,50 Q50,75 65,50 Q80,25 95,50" opacity="0.5"/>
  </g>

  <!-- Flight path (right) -->
  <g transform="translate(1040,80)" opacity="0.08">
    <path d="M0,60 Q50,10 100,35 Q150,60 180,15" stroke="#f59e0b" fill="none" stroke-width="1.5" stroke-dasharray="5,5"/>
    <polygon points="180,15 168,13 172,23" fill="#f59e0b"/>
  </g>

  <!-- ============ COMPASS LOGO ============ -->
  <g transform="translate(600, 110)" filter="url(#logoGlow)">
    <!-- Outer navy ring -->
    <circle cx="0" cy="0" r="44" fill="#1B2A4A"/>
    <!-- Gold ring -->
    <circle cx="0" cy="0" r="35" fill="none" stroke="url(#goldRing)" stroke-width="2.5"/>
    <!-- Inner white area -->
    <circle cx="0" cy="0" r="31" fill="white" opacity="0.95"/>
    <!-- Cardinal labels -->
    <text x="0" y="-19" font-family="system-ui,sans-serif" font-size="8" font-weight="700" fill="#1B2A4A" text-anchor="middle">N</text>
    <text x="0" y="24" font-family="system-ui,sans-serif" font-size="8" font-weight="700" fill="#1B2A4A" text-anchor="middle">S</text>
    <text x="-22" y="3" font-family="system-ui,sans-serif" font-size="8" font-weight="700" fill="#1B2A4A" text-anchor="middle">W</text>
    <text x="22" y="3" font-family="system-ui,sans-serif" font-size="8" font-weight="700" fill="#1B2A4A" text-anchor="middle">E</text>
    <!-- Center chat bubble -->
    <circle cx="0" cy="0" r="13" fill="#1B2A4A"/>
    <path d="M-7,9 L-10,16 L2,9" fill="#1B2A4A"/>
    <!-- Compass star -->
    <path d="M0,-6 L1.5,-1.5 L6,0 L1.5,1.5 L0,6 L-1.5,1.5 L-6,0 L-1.5,-1.5 Z" fill="#C49B3C"/>
    <circle cx="0" cy="0" r="1.5" fill="#C49B3C"/>
  </g>

  <!-- ============ TITLE ============ -->
  <text x="600" y="185" text-anchor="middle" font-family="system-ui,-apple-system,'Segoe UI',Helvetica,Arial,sans-serif" font-size="72" font-weight="800" letter-spacing="-1">
    <tspan fill="#ffffff">Nova</tspan><tspan fill="url(#blue)" filter="url(#glow)">Tour</tspan>
  </text>

  <!-- Subtitle -->
  <text x="600" y="215" text-anchor="middle" font-family="system-ui,sans-serif" font-size="15" fill="#94a3b8" letter-spacing="5" font-weight="300">AI VOICE TRAVEL ASSISTANT</text>

  <!-- Tagline -->
  <text x="600" y="242" text-anchor="middle" font-family="system-ui,sans-serif" font-size="12.5" fill="#64748b" letter-spacing="0.5">Speak your dream trip. Watch it come to life.</text>

  <!-- ============ SERVICE BADGES ============ -->
  <g transform="translate(600, 260)" text-anchor="middle">
    <!-- Nova Sonic -->
    <g transform="translate(-240, 0)">
      <rect x="-58" y="0" width="116" height="30" rx="15" fill="#f59e0b" fill-opacity="0.1" stroke="#f59e0b" stroke-opacity="0.3" stroke-width="1"/>
      <text x="0" y="20" font-family="system-ui,sans-serif" font-size="12" fill="#fbbf24" font-weight="600">Nova Sonic</text>
    </g>
    <!-- Nova Lite -->
    <g transform="translate(-105, 0)">
      <rect x="-50" y="0" width="100" height="30" rx="15" fill="#3b82f6" fill-opacity="0.1" stroke="#3b82f6" stroke-opacity="0.3" stroke-width="1"/>
      <text x="0" y="20" font-family="system-ui,sans-serif" font-size="12" fill="#60a5fa" font-weight="600">Nova Lite</text>
    </g>
    <!-- Nova Act -->
    <g transform="translate(15, 0)">
      <rect x="-48" y="0" width="96" height="30" rx="15" fill="#10b981" fill-opacity="0.1" stroke="#10b981" stroke-opacity="0.3" stroke-width="1"/>
      <text x="0" y="20" font-family="system-ui,sans-serif" font-size="12" fill="#34d399" font-weight="600">Nova Act</text>
    </g>
    <!-- Strands Agents -->
    <g transform="translate(140, 0)">
      <rect x="-62" y="0" width="124" height="30" rx="15" fill="#f59e0b" fill-opacity="0.07" stroke="#f59e0b" stroke-opacity="0.2" stroke-width="1"/>
      <text x="0" y="20" font-family="system-ui,sans-serif" font-size="12" fill="#fbbf24" font-weight="600">Strands Agents</text>
    </g>
    <!-- Gemini 3.1 -->
    <g transform="translate(275, 0)">
      <rect x="-52" y="0" width="104" height="30" rx="15" fill="#8b5cf6" fill-opacity="0.1" stroke="#8b5cf6" stroke-opacity="0.3" stroke-width="1"/>
      <text x="0" y="20" font-family="system-ui,sans-serif" font-size="12" fill="#a78bfa" font-weight="600">Gemini 3.1</text>
    </g>
  </g>

  <!-- Bottom accent line -->
  <rect x="300" y="315" width="600" height="2" rx="1" fill="url(#blue)" opacity="0.2"/>

  <!-- Powered-by line -->
  <text x="600" y="345" text-anchor="middle" font-family="system-ui,sans-serif" font-size="10" fill="#475569" letter-spacing="1.5">
    AMAZON NOVA  ·  STRANDS AGENTS  ·  GOOGLE GEMINI  ·  GOOGLE MAPS  ·  OPENWEATHER
  </text>

  <!-- Version / hackathon note -->
  <text x="600" y="365" text-anchor="middle" font-family="system-ui,sans-serif" font-size="9" fill="#334155" letter-spacing="0.5">Built for Amazon Nova Hackathon 2026</text>
</svg>
